<?xml version="1.0" encoding="UTF-8" standalone="no"?><!DOCTYPE svg PUBLIC "-//W3C//DTD SVG 1.1//EN" "http://www.w3.org/Graphics/SVG/1.1/DTD/svg11.dtd"><svg width="100%" height="100%" viewBox="0 0 50 50" version="1.1" xmlns="http://www.w3.org/2000/svg" xmlns:xlink="http://www.w3.org/1999/xlink" xml:space="preserve" xmlns:serif="http://www.serif.com/" style="fill-rule:evenodd;clip-rule:evenodd;stroke-linejoin:round;stroke-miterlimit:2;"><path d="M7.813,37.5c0,-0.857 0.705,-1.563 1.562,-1.563l31.25,0.001c0.857,0 1.563,0.705 1.563,1.562c-0.001,0.857 -0.706,1.563 -1.563,1.563l-31.25,0c-0.857,0 -1.562,-0.706 -1.562,-1.563Zm0,-12.5c0,-0.857 0.705,-1.562 1.562,-1.562l31.25,0c0.857,0 1.563,0.705 1.563,1.562c-0.001,0.857 -0.706,1.563 -1.563,1.563l-31.25,0c-0.857,0 -1.562,-0.706 -1.562,-1.563Zm0,-12.5c0,-0.857 0.705,-1.562 1.562,-1.562l31.25,0c0.857,0 1.563,0.705 1.563,1.562c-0.001,0.857 -0.706,1.563 -1.563,1.563l-31.25,0c-0.857,0 -1.562,-0.706 -1.562,-1.563Z" style="fill:#f8f9fa;"/></svg>